<?xml version="1.0" encoding="UTF-8"?>
<svg width="700pt" height="700pt" version="1.1" viewBox="0 0 700 700" xmlns="http://www.w3.org/2000/svg" xmlns:xlink="http://www.w3.org/1999/xlink">
 <defs>
  <symbol id="u" overflow="visible">
   <path d="m18.766-1.125c-0.96875 0.5-1.9805 0.875-3.0312 1.125-1.043 0.25781-2.1367 0.39062-3.2812 0.39062-3.3984 0-6.0898-0.94531-8.0781-2.8438-1.9922-1.9062-2.9844-4.4844-2.9844-7.7344 0-3.2578 0.99219-5.8359 2.9844-7.7344 1.9883-1.9062 4.6797-2.8594 8.0781-2.8594 1.1445 0 2.2383 0.13281 3.2812 0.39062 1.0508 0.25 2.0625 0.625 3.0312 1.125v4.2188c-0.98047-0.65625-1.9453-1.1406-2.8906-1.4531-0.94922-0.3125-1.9492-0.46875-3-0.46875-1.875 0-3.3516 0.60547-4.4219 1.8125-1.0742 1.1992-1.6094 2.8555-1.6094 4.9688 0 2.1055 0.53516 3.7617 1.6094 4.9688 1.0703 1.1992 2.5469 1.7969 4.4219 1.7969 1.0508 0 2.0508-0.14844 3-0.45312 0.94531-0.3125 1.9102-0.80078 2.8906-1.4688z"/>
  </symbol>
  <symbol id="c" overflow="visible">
   <path d="m13.734-11.141c-0.4375-0.19531-0.87109-0.34375-1.2969-0.4375-0.41797-0.10156-0.83984-0.15625-1.2656-0.15625-1.2617 0-2.2305 0.40625-2.9062 1.2188-0.67969 0.80469-1.0156 1.9531-1.0156 3.4531v7.0625h-4.8906v-15.312h4.8906v2.5156c0.625-1 1.3438-1.7266 2.1562-2.1875 0.82031-0.46875 1.8008-0.70312 2.9375-0.70312 0.16406 0 0.34375 0.011719 0.53125 0.03125 0.19531 0.011719 0.47656 0.039062 0.84375 0.078125z"/>
  </symbol>
  <symbol id="b" overflow="visible">
   <path d="m17.641-7.7031v1.4062h-11.453c0.125 1.1484 0.53906 2.0078 1.25 2.5781 0.70703 0.57422 1.7031 0.85938 2.9844 0.85938 1.0312 0 2.082-0.14844 3.1562-0.45312 1.082-0.3125 2.1914-0.77344 3.3281-1.3906v3.7656c-1.1562 0.4375-2.3125 0.76562-3.4688 0.98438-1.1562 0.22656-2.3125 0.34375-3.4688 0.34375-2.7734 0-4.9297-0.70312-6.4688-2.1094-1.5312-1.4062-2.2969-3.3789-2.2969-5.9219 0-2.5 0.75391-4.4609 2.2656-5.8906 1.5078-1.4375 3.582-2.1562 6.2188-2.1562 2.4062 0 4.332 0.73047 5.7812 2.1875 1.4453 1.4492 2.1719 3.3828 2.1719 5.7969zm-5.0312-1.625c0-0.92578-0.27344-1.6719-0.8125-2.2344-0.54297-0.57031-1.25-0.85938-2.125-0.85938-0.94922 0-1.7188 0.26562-2.3125 0.79688s-0.96484 1.2969-1.1094 2.2969z"/>
  </symbol>
  <symbol id="e" overflow="visible">
   <path d="m9.2188-6.8906c-1.0234 0-1.793 0.17188-2.3125 0.51562-0.51172 0.34375-0.76562 0.85547-0.76562 1.5312 0 0.625 0.20703 1.1172 0.625 1.4688 0.41406 0.34375 0.98828 0.51562 1.7188 0.51562 0.92578 0 1.7031-0.32812 2.3281-0.98438 0.63281-0.66406 0.95312-1.4922 0.95312-2.4844v-0.5625zm7.4688-1.8438v8.7344h-4.9219v-2.2656c-0.65625 0.92969-1.3984 1.6055-2.2188 2.0312-0.82422 0.41406-1.8242 0.625-3 0.625-1.5859 0-2.8711-0.45703-3.8594-1.375-0.99219-0.92578-1.4844-2.1289-1.4844-3.6094 0-1.7891 0.61328-3.1016 1.8438-3.9375 1.2383-0.84375 3.1797-1.2656 5.8281-1.2656h2.8906v-0.39062c0-0.76953-0.30859-1.332-0.92188-1.6875-0.61719-0.36328-1.5703-0.54688-2.8594-0.54688-1.0547 0-2.0312 0.10547-2.9375 0.3125-0.89844 0.21094-1.7305 0.52344-2.5 0.9375v-3.7344c1.0391-0.25 2.0859-0.44141 3.1406-0.57812 1.0625-0.13281 2.125-0.20312 3.1875-0.20312 2.7578 0 4.75 0.54688 5.9688 1.6406 1.2266 1.0859 1.8438 2.8555 1.8438 5.3125z"/>
  </symbol>
  <symbol id="a" overflow="visible">
   <path d="m7.7031-19.656v4.3438h5.0469v3.5h-5.0469v6.5c0 0.71094 0.14062 1.1875 0.42188 1.4375s0.83594 0.375 1.6719 0.375h2.5156v3.5h-4.1875c-1.9375 0-3.3125-0.39844-4.125-1.2031-0.80469-0.8125-1.2031-2.1797-1.2031-4.1094v-6.5h-2.4219v-3.5h2.4219v-4.3438z"/>
  </symbol>
  <symbol id="j" overflow="visible">
   <path d="m12.766-13.078v-8.2031h4.9219v21.281h-4.9219v-2.2188c-0.66797 0.90625-1.4062 1.5703-2.2188 1.9844s-1.7578 0.625-2.8281 0.625c-1.8867 0-3.4336-0.75-4.6406-2.25-1.2109-1.5-1.8125-3.4258-1.8125-5.7812 0-2.3633 0.60156-4.2969 1.8125-5.7969 1.207-1.5 2.7539-2.25 4.6406-2.25 1.0625 0 2 0.21484 2.8125 0.64062 0.82031 0.42969 1.5664 1.0859 2.2344 1.9688zm-3.2188 9.9219c1.0391 0 1.8359-0.37891 2.3906-1.1406 0.55078-0.76953 0.82812-1.8828 0.82812-3.3438 0-1.457-0.27734-2.5664-0.82812-3.3281-0.55469-0.76953-1.3516-1.1562-2.3906-1.1562-1.043 0-1.8398 0.38672-2.3906 1.1562-0.55469 0.76172-0.82812 1.8711-0.82812 3.3281 0 1.4609 0.27344 2.5742 0.82812 3.3438 0.55078 0.76172 1.3477 1.1406 2.3906 1.1406z"/>
  </symbol>
  <symbol id="i" overflow="visible">
   <path d="m10.5-3.1562c1.0508 0 1.8516-0.37891 2.4062-1.1406 0.55078-0.76953 0.82812-1.8828 0.82812-3.3438 0-1.457-0.27734-2.5664-0.82812-3.3281-0.55469-0.76953-1.3555-1.1562-2.4062-1.1562-1.0547 0-1.8594 0.38672-2.4219 1.1562-0.55469 0.77344-0.82812 1.8828-0.82812 3.3281 0 1.4492 0.27344 2.5586 0.82812 3.3281 0.5625 0.77344 1.3672 1.1562 2.4219 1.1562zm-3.25-9.9219c0.67578-0.88281 1.4219-1.5391 2.2344-1.9688 0.82031-0.42578 1.7656-0.64062 2.8281-0.64062 1.8945 0 3.4453 0.75 4.6562 2.25 1.207 1.5 1.8125 3.4336 1.8125 5.7969 0 2.3555-0.60547 4.2812-1.8125 5.7812-1.2109 1.5-2.7617 2.25-4.6562 2.25-1.0625 0-2.0078-0.21094-2.8281-0.625-0.8125-0.42578-1.5586-1.0859-2.2344-1.9844v2.2188h-4.8906v-21.281h4.8906z"/>
  </symbol>
  <symbol id="h" overflow="visible">
   <path d="m0.34375-15.312h4.8906l4.125 10.391 3.5-10.391h4.8906l-6.4375 16.766c-0.64844 1.6953-1.4023 2.8828-2.2656 3.5625-0.86719 0.6875-2 1.0312-3.4062 1.0312h-2.8438v-3.2188h1.5312c0.83203 0 1.4375-0.13672 1.8125-0.40625 0.38281-0.26172 0.67969-0.73047 0.89062-1.4062l0.14062-0.42188z"/>
  </symbol>
  <symbol id="g" overflow="visible">
   <path d="m2.5781-20.406h6.6875l4.6562 10.922 4.6719-10.922h6.6875v20.406h-4.9844v-14.938l-4.7031 11.016h-3.3281l-4.7031-11.016v14.938h-4.9844z"/>
  </symbol>
  <symbol id="t" overflow="visible">
   <path d="m2.5781-20.406h5.25v7.7656h7.7656v-7.7656h5.2656v20.406h-5.2656v-8.6562h-7.7656v8.6562h-5.25z"/>
  </symbol>
  <symbol id="d" overflow="visible">
   <path d="m9.6406-12.188c-1.0859 0-1.9141 0.39062-2.4844 1.1719-0.57422 0.78125-0.85938 1.9062-0.85938 3.375s0.28516 2.5938 0.85938 3.375c0.57031 0.77344 1.3984 1.1562 2.4844 1.1562 1.0625 0 1.875-0.38281 2.4375-1.1562 0.57031-0.78125 0.85938-1.9062 0.85938-3.375s-0.28906-2.5938-0.85938-3.375c-0.5625-0.78125-1.375-1.1719-2.4375-1.1719zm0-3.5c2.6328 0 4.6914 0.71484 6.1719 2.1406 1.4766 1.418 2.2188 3.3867 2.2188 5.9062 0 2.5117-0.74219 4.4805-2.2188 5.9062-1.4805 1.418-3.5391 2.125-6.1719 2.125-2.6484 0-4.7148-0.70703-6.2031-2.125-1.4922-1.4258-2.2344-3.3945-2.2344-5.9062 0-2.5195 0.74219-4.4883 2.2344-5.9062 1.4883-1.4258 3.5547-2.1406 6.2031-2.1406z"/>
  </symbol>
  <symbol id="s" overflow="visible">
   <path d="m0.42188-15.312h4.8906l3.8281 10.578 3.7969-10.578h4.9062l-6.0312 15.312h-5.375z"/>
  </symbol>
  <symbol id="f" overflow="visible">
   <path d="m17.75-9.3281v9.3281h-4.9219v-7.1094c0-1.3438-0.03125-2.2656-0.09375-2.7656s-0.16797-0.86719-0.3125-1.1094c-0.1875-0.3125-0.44922-0.55469-0.78125-0.73438-0.32422-0.17578-0.69531-0.26562-1.1094-0.26562-1.0234 0-1.8242 0.39844-2.4062 1.1875-0.58594 0.78125-0.875 1.8711-0.875 3.2656v7.5312h-4.8906v-21.281h4.8906v8.2031c0.73828-0.88281 1.5195-1.5391 2.3438-1.9688 0.83203-0.42578 1.75-0.64062 2.75-0.64062 1.7695 0 3.1133 0.54688 4.0312 1.6406 0.91406 1.0859 1.375 2.6562 1.375 4.7188z"/>
  </symbol>
  <symbol id="r" overflow="visible">
   <path d="m12.422-21.281v3.2188h-2.7031c-0.6875 0-1.1719 0.125-1.4531 0.375-0.27344 0.25-0.40625 0.6875-0.40625 1.3125v1.0625h4.1875v3.5h-4.1875v11.812h-4.8906v-11.812h-2.4375v-3.5h2.4375v-1.0625c0-1.6641 0.46094-2.8984 1.3906-3.7031 0.92578-0.80078 2.3672-1.2031 4.3281-1.2031z"/>
  </symbol>
  <symbol id="q" overflow="visible">
   <path d="m16.547-12.766c0.61328-0.94531 1.3477-1.6719 2.2031-2.1719 0.85156-0.5 1.7891-0.75 2.8125-0.75 1.7578 0 3.0977 0.54688 4.0156 1.6406 0.92578 1.0859 1.3906 2.6562 1.3906 4.7188v9.3281h-4.9219v-7.9844-0.35938c0.007813-0.13281 0.015625-0.32031 0.015625-0.5625 0-1.082-0.16406-1.8633-0.48438-2.3438-0.3125-0.48828-0.82422-0.73438-1.5312-0.73438-0.92969 0-1.6484 0.38672-2.1562 1.1562-0.51172 0.76172-0.77344 1.8672-0.78125 3.3125v7.5156h-4.9219v-7.9844c0-1.6953-0.14844-2.7852-0.4375-3.2656-0.29297-0.48828-0.8125-0.73438-1.5625-0.73438-0.9375 0-1.6641 0.38672-2.1719 1.1562-0.51172 0.76172-0.76562 1.8594-0.76562 3.2969v7.5312h-4.9219v-15.312h4.9219v2.2344c0.60156-0.86328 1.2891-1.5156 2.0625-1.9531 0.78125-0.4375 1.6406-0.65625 2.5781-0.65625 1.0625 0 2 0.25781 2.8125 0.76562 0.8125 0.51172 1.4258 1.2305 1.8438 2.1562z"/>
  </symbol>
  <symbol id="p" overflow="visible">
   <path d="m2.5781-20.406h5.875l7.4219 14v-14h4.9844v20.406h-5.875l-7.4219-14v14h-4.9844z"/>
  </symbol>
  <symbol id="o" overflow="visible">
   <path d="m2.1875-5.9688v-9.3438h4.9219v1.5312c0 0.83594-0.007813 1.875-0.015625 3.125-0.011719 1.25-0.015625 2.0859-0.015625 2.5 0 1.2422 0.03125 2.1328 0.09375 2.6719 0.070313 0.54297 0.17969 0.93359 0.32812 1.1719 0.20703 0.32422 0.47266 0.57422 0.79688 0.75 0.32031 0.16797 0.69141 0.25 1.1094 0.25 1.0195 0 1.8203-0.39062 2.4062-1.1719 0.58203-0.78125 0.875-1.8672 0.875-3.2656v-7.5625h4.8906v15.312h-4.8906v-2.2188c-0.74219 0.89844-1.5234 1.5586-2.3438 1.9844-0.82422 0.41406-1.7344 0.625-2.7344 0.625-1.7617 0-3.1055-0.53906-4.0312-1.625-0.92969-1.082-1.3906-2.6602-1.3906-4.7344z"/>
  </symbol>
  <symbol id="n" overflow="visible">
   <path d="m17.75-9.3281v9.3281h-4.9219v-7.1406c0-1.3203-0.03125-2.2344-0.09375-2.7344s-0.16797-0.86719-0.3125-1.1094c-0.1875-0.3125-0.44922-0.55469-0.78125-0.73438-0.32422-0.17578-0.69531-0.26562-1.1094-0.26562-1.0234 0-1.8242 0.39844-2.4062 1.1875-0.58594 0.78125-0.875 1.8711-0.875 3.2656v7.5312h-4.8906v-15.312h4.8906v2.2344c0.73828-0.88281 1.5195-1.5391 2.3438-1.9688 0.83203-0.42578 1.75-0.64062 2.75-0.64062 1.7695 0 3.1133 0.54688 4.0312 1.6406 0.91406 1.0859 1.375 2.6562 1.375 4.7188z"/>
  </symbol>
  <symbol id="m" overflow="visible">
   <path d="m2.5781-20.406h8.7344c2.5938 0 4.582 0.57812 5.9688 1.7344 1.3945 1.1484 2.0938 2.7891 2.0938 4.9219 0 2.1367-0.69922 3.7812-2.0938 4.9375-1.3867 1.1562-3.375 1.7344-5.9688 1.7344h-3.4844v7.0781h-5.25zm5.25 3.8125v5.7031h2.9219c1.0195 0 1.8047-0.25 2.3594-0.75 0.5625-0.5 0.84375-1.2031 0.84375-2.1094 0-0.91406-0.28125-1.6172-0.84375-2.1094-0.55469-0.48828-1.3398-0.73438-2.3594-0.73438z"/>
  </symbol>
  <symbol id="l" overflow="visible">
   <path d="m2.3594-15.312h4.8906v15.031c0 2.0508-0.49609 3.6172-1.4844 4.7031-0.98047 1.082-2.4062 1.625-4.2812 1.625h-2.4219v-3.2188h0.85938c0.92578 0 1.5625-0.21094 1.9062-0.625 0.35156-0.41797 0.53125-1.2461 0.53125-2.4844zm0-5.9688h4.8906v4h-4.8906z"/>
  </symbol>
  <symbol id="k" overflow="visible">
   <path d="m14.719-14.828v3.9844c-0.65625-0.45703-1.3242-0.79688-2-1.0156-0.66797-0.21875-1.3594-0.32812-2.0781-0.32812-1.3672 0-2.4336 0.40234-3.2031 1.2031-0.76172 0.79297-1.1406 1.9062-1.1406 3.3438 0 1.4297 0.37891 2.543 1.1406 3.3438 0.76953 0.79297 1.8359 1.1875 3.2031 1.1875 0.75781 0 1.4844-0.10938 2.1719-0.32812 0.6875-0.22656 1.3203-0.56641 1.9062-1.0156v4c-0.76172 0.28125-1.5391 0.48828-2.3281 0.625-0.78125 0.14453-1.5742 0.21875-2.375 0.21875-2.7617 0-4.9219-0.70703-6.4844-2.125-1.5547-1.4141-2.3281-3.3828-2.3281-5.9062 0-2.5312 0.77344-4.5039 2.3281-5.9219 1.5625-1.4141 3.7227-2.125 6.4844-2.125 0.80078 0 1.5938 0.074219 2.375 0.21875 0.78125 0.13672 1.5547 0.35156 2.3281 0.64062z"/>
  </symbol>
 </defs>
 <g>
  <path d="m350 28c-138.95 0-252 113.05-252 252s113.05 252 252 252 252-113.05 252-252-113.05-252-252-252zm-238.6 252c0-70.926 31.137-134.68 80.422-178.41 0.42188 0.35937 0.88672 0.76562 1.5117 1.332l-16 30.043c-1.1602 2.1836-0.33203 4.8906 1.8438 6.0469 0.67187 0.35938 1.3906 0.52734 2.1016 0.52734 1.5977 0 3.1406-0.85547 3.9414-2.3633l14.762-27.73c6.0078 6.2734 14.246 15.949 22.691 28.996l-27.234 30.789c-1.6289 1.8477-1.457 4.6641 0.39062 6.3047 0.84375 0.75 1.8984 1.1211 2.957 1.1211 1.2305 0 2.457-0.50391 3.3477-1.5117l25.426-28.746c5.4922 9.3867 10.875 20.203 15.59 32.496l-31.863 25.418c-1.9258 1.5352-2.25 4.3438-0.70703 6.2734 0.88672 1.1094 2.1836 1.6875 3.4961 1.6875 0.97266 0 1.9609-0.32422 2.7812-0.97266l29.469-23.504c3.8906 11.574 7.1133 24.289 9.2695 38.176l-28.867 12.293c-2.2695 0.96875-3.3281 3.5859-2.3594 5.8633 0.72266 1.6914 2.375 2.7109 4.1094 2.7109 0.58203 0 1.1758-0.11328 1.7539-0.35938l26.57-11.305c1.2031 10.422 1.7969 21.453 1.625 33.098l-29.34 13.301c-2.25 1.0117-3.2461 3.668-2.2227 5.9023 0.73828 1.6523 2.3672 2.6328 4.0664 2.6328 0.62109 0 1.25-0.12891 1.8438-0.40234l25.305-11.469c-0.54688 10.539-1.7461 21.547-3.6562 33.027l-34.43 8.2695c-2.4023 0.57812-3.875 2.9922-3.2969 5.3945 0.57812 2.3789 2.9062 3.8477 5.3867 3.2969l30.648-7.3711c-2.2578 11.387-5.2734 23.219-9.0703 35.48h-33.809c-2.4648 0-4.4648 1.9922-4.4648 4.4648 0 2.4688 2 4.4688 4.4648 4.4688h30.855c-3.5781 10.625-7.6445 21.504-12.5 32.777l-35.012-6.9297c-2.3906-0.52734-4.7695 1.0859-5.2422 3.5156-0.47656 2.418 1.0938 4.7695 3.5156 5.2422l32.898 6.5c-3.8242 8.3984-8.0352 16.984-12.621 25.742l-29.059-9.6875c-2.3242-0.76172-4.8594 0.5-5.6523 2.8281-0.77734 2.3359 0.48828 4.8672 2.8242 5.6523l27.715 9.2383c-3.8203 7.0039-7.8945 14.117-12.23 21.332-51.309-43.801-83.945-108.88-83.945-181.48zm238.6 238.6c-55.727 0-107.01-19.258-147.67-51.402 4.1992-6.9766 8.1641-13.855 11.898-20.641l12.859 21.426c0.83594 1.3945 2.3203 2.1719 3.832 2.1719 0.78516 0 1.5781-0.20312 2.2969-0.63672 2.1211-1.2656 2.8125-4.0078 1.5352-6.125l-15.637-26.074c4.6992-8.9336 9-17.68 12.93-26.254l23.312 26.062c0.89062 0.99219 2.1094 1.4961 3.332 1.4961 1.0625 0 2.1289-0.37109 2.9727-1.1328 1.8438-1.6523 2-4.4805 0.35938-6.3125l-25.906-28.965c5.1133-11.777 9.3594-23.145 13.094-34.242l29.855 22.742c0.80078 0.62109 1.7539 0.91797 2.7031 0.91797 1.3438 0 2.6758-0.59766 3.5508-1.7578 1.5-1.9648 1.1211-4.7656-0.84375-6.2539l-32.277-24.602c4-12.898 7.1328-25.324 9.4766-37.297l32.504 19.062c0.70703 0.41016 1.4961 0.60547 2.2617 0.60547 1.5234 0 3.0195-0.79688 3.8516-2.207 1.25-2.1328 0.53125-4.8672-1.5977-6.1211l-35.41-20.746c2.0312-12.293 3.2695-24.074 3.7852-35.324l33.711 11.883c2.3359 0.83594 4.8789-0.39844 5.6953-2.7266 0.81641-2.3203-0.40234-4.8789-2.7344-5.6953l-36.391-12.824c0.15234-12.137-0.53125-23.613-1.8438-34.484l32.996 1.1406c2.6445 0.28125 4.5352-1.8477 4.625-4.3125 0.089844-2.4688-1.8477-4.5352-4.3125-4.625l-34.512-1.1914c-2.2695-14.332-5.6289-27.461-9.6758-39.434l31.41 1.1406h0.16797c2.3906 0 4.3789-1.8945 4.4648-4.3008 0.089843-2.4688-1.8438-4.5352-4.3008-4.6328l-34.973-1.2773c-4.8594-12.621-10.398-23.742-16.078-33.453l30.469-4.1172c2.4453-0.32422 4.1562-2.5703 3.8242-5.0234-0.32422-2.4531-2.5156-4.2578-5.0234-3.8203l-34.363 4.6406c-8.8633-13.766-17.586-24.059-23.973-30.75l26.746-14.125c2.1797-1.1523 3.0195-3.8516 1.8633-6.0352-1.1641-2.1914-3.875-3-6.0352-1.8633l-29.25 15.457c-0.39062-0.35938-0.62109-0.54688-0.95312-0.84375 41.227-33.918 93.961-54.312 151.38-54.312 57.422 0 110.15 20.395 151.38 54.305-0.33594 0.29688-0.55859 0.48828-0.95312 0.84375l-29.254-15.457c-2.1602-1.1367-4.8711-0.32422-6.0352 1.8633-1.1523 2.1836-0.3125 4.8906 1.8633 6.0352l26.75 14.125c-6.3906 6.6914-15.113 16.984-23.973 30.75l-34.367-4.6406c-2.5078-0.4375-4.7031 1.3711-5.0195 3.8203-0.33594 2.4531 1.3789 4.7031 3.8203 5.0234l30.469 4.1172c-5.6797 9.7109-11.219 20.832-16.078 33.453l-34.965 1.2773c-2.457 0.09375-4.3906 2.1602-4.3047 4.6328 0.089844 2.4062 2.0703 4.3008 4.4688 4.3008h0.16406l31.41-1.1406c-4.0469 11.977-7.4023 25.105-9.6758 39.434l-34.512 1.1914c-2.457 0.089843-4.3945 2.1562-4.3125 4.625 0.089844 2.457 1.9805 4.5859 4.625 4.3125l32.996-1.1406c-1.3047 10.871-1.9883 22.348-1.8438 34.484l-36.383 12.828c-2.3281 0.81641-3.5508 3.375-2.7266 5.6953 0.81641 2.3281 3.3594 3.5664 5.6953 2.7266l33.711-11.879c0.51563 11.25 1.7539 23.027 3.793 35.324l-35.414 20.746c-2.1289 1.2539-2.8438 3.9883-1.5977 6.1211 0.83984 1.4102 2.3281 2.207 3.8594 2.207 0.76562 0 1.5508-0.19531 2.2578-0.60547l32.504-19.062c2.3398 11.973 5.4805 24.398 9.4766 37.297l-32.285 24.602c-1.9609 1.4961-2.3398 4.2969-0.83984 6.2539 0.875 1.1602 2.2109 1.7578 3.5508 1.7578 0.95312 0 1.9023-0.29688 2.7031-0.91797l29.848-22.742c3.7344 11.098 7.9844 22.473 13.094 34.242l-25.906 28.965c-1.6406 1.832-1.4844 4.6602 0.35156 6.3125 0.84375 0.76172 1.9141 1.1328 2.9727 1.1328 1.2266 0 2.4453-0.50391 3.3359-1.4961l23.309-26.062c3.9258 8.5742 8.2266 17.328 12.93 26.254l-15.629 26.074c-1.2812 2.1172-0.58984 4.8594 1.5273 6.125 0.71875 0.4375 1.5117 0.63672 2.2969 0.63672 1.5117 0 2.9922-0.77734 3.832-2.1719l12.863-21.426c3.7305 6.7891 7.6875 13.66 11.895 20.641-40.66 32.145-91.945 51.402-147.67 51.402zm154.66-57.129c-4.3398-7.2109-8.4102-14.324-12.234-21.332l27.715-9.2383c2.3359-0.78516 3.6055-3.3164 2.8281-5.6523-0.80078-2.3281-3.3359-3.5898-5.6562-2.8281l-29.059 9.6875c-4.582-8.7539-8.7969-17.344-12.621-25.742l32.898-6.5c2.4258-0.46875 3.9922-2.8242 3.5117-5.2422-0.46875-2.4297-2.8516-4.043-5.2422-3.5156l-34.988 6.9062c-4.8594-11.273-8.9258-22.148-12.5-32.777h30.855c2.4648 0 4.4648-1.9922 4.4648-4.4688 0-2.4648-1.9922-4.4648-4.4648-4.4648h-33.809c-3.7969-12.266-6.8164-24.098-9.0664-35.48l30.648 7.3711c2.4805 0.54688 4.8086-0.91797 5.3867-3.2969 0.57812-2.4023-0.89453-4.8164-3.2969-5.3945l-34.434-8.2539c-1.9141-11.48-3.1094-22.488-3.6523-33.027l25.305 11.473c0.59375 0.27344 1.2227 0.40234 1.8438 0.40234 1.6953 0 3.3281-0.98047 4.0664-2.6328 1.0234-2.2344 0.027344-4.8945-2.2227-5.9023l-29.332-13.305c-0.17187-11.648 0.41406-22.676 1.6172-33.098l26.578 11.305c0.57031 0.24609 1.1641 0.35937 1.7539 0.35937 1.7422 0 3.3828-1.0195 4.1094-2.7109 0.96484-2.2773-0.089844-4.8945-2.3633-5.8633l-28.863-12.293c2.1562-13.887 5.375-26.602 9.2617-38.176l29.473 23.504c0.81641 0.65625 1.8047 0.97266 2.7812 0.97266 1.3047 0 2.6055-0.57812 3.4883-1.6875 1.5391-1.9258 1.2227-4.7383-0.71094-6.2734l-31.859-25.418c4.7109-12.293 10.09-23.109 15.586-32.496l25.418 28.746c0.89062 1.0039 2.1211 1.5117 3.3555 1.5117 1.0547 0 2.1094-0.36328 2.957-1.1211 1.8477-1.6406 2.0234-4.457 0.39062-6.3047l-27.234-30.789c8.4453-13.055 16.684-22.727 22.688-28.996l14.766 27.73c0.80078 1.5117 2.3398 2.3633 3.9375 2.3633 0.71875 0 1.4336-0.16797 2.1055-0.52734 2.1719-1.1602 3-3.8633 1.8438-6.0469l-16-30.043c0.62109-0.57031 1.0938-0.97266 1.5117-1.332 49.273 43.754 80.406 107.5 80.406 178.43 0 72.598-32.637 137.68-83.941 181.47z"/>
  <use x="70" y="644" xlink:href="#u"/>
  <use x="90.550781" y="644" xlink:href="#c"/>
  <use x="104.359375" y="644" xlink:href="#b"/>
  <use x="123.347656" y="644" xlink:href="#e"/>
  <use x="142.242188" y="644" xlink:href="#a"/>
  <use x="155.628906" y="644" xlink:href="#b"/>
  <use x="174.617188" y="644" xlink:href="#j"/>
  <use x="204.410156" y="644" xlink:href="#i"/>
  <use x="224.453125" y="644" xlink:href="#h"/>
  <use x="252.453125" y="644" xlink:href="#g"/>
  <use x="280.3125" y="644" xlink:href="#e"/>
  <use x="299.210938" y="644" xlink:href="#a"/>
  <use x="312.59375" y="644" xlink:href="#b"/>
  <use x="341.332031" y="644" xlink:href="#t"/>
  <use x="364.765625" y="644" xlink:href="#d"/>
  <use x="384" y="644" xlink:href="#c"/>
  <use x="397.8125" y="644" xlink:href="#s"/>
  <use x="416.0625" y="644" xlink:href="#e"/>
  <use x="434.957031" y="644" xlink:href="#a"/>
  <use x="448.34375" y="644" xlink:href="#f"/>
  <use x="70" y="672" xlink:href="#r"/>
  <use x="82.183594" y="672" xlink:href="#c"/>
  <use x="95.992188" y="672" xlink:href="#d"/>
  <use x="115.226562" y="672" xlink:href="#q"/>
  <use x="154.152344" y="672" xlink:href="#a"/>
  <use x="167.535156" y="672" xlink:href="#f"/>
  <use x="187.46875" y="672" xlink:href="#b"/>
  <use x="216.207031" y="672" xlink:href="#p"/>
  <use x="239.640625" y="672" xlink:href="#d"/>
  <use x="258.878906" y="672" xlink:href="#o"/>
  <use x="278.8125" y="672" xlink:href="#n"/>
  <use x="308.492188" y="672" xlink:href="#m"/>
  <use x="329.015625" y="672" xlink:href="#c"/>
  <use x="342.820312" y="672" xlink:href="#d"/>
  <use x="362.058594" y="672" xlink:href="#l"/>
  <use x="371.65625" y="672" xlink:href="#b"/>
  <use x="390.648438" y="672" xlink:href="#k"/>
  <use x="407.242188" y="672" xlink:href="#a"/>
 </g>
</svg>
